<svg xmlns="http://www.w3.org/2000/svg" version="1.0" width="453" height="453"><path d="M453 226.5a226.5 226.5 0 1 1-453 0 226.5 226.5 0 1 1 453 0z" fill-rule="evenodd"/><g stroke="#def" stroke-width="1.1" fill-rule="evenodd"><path d="M397.05 226.5a170.55 170.55 0 1 1-341.1 0 170.55 170.55 0 1 1 341.1 0z" fill="red"/><path d="M387.95 226.5a161.45 161.45 0 1 1-322.9 0 161.45 161.45 0 1 1 322.9 0z"/><path d="M334.05 226.5a107.55 107.55 0 1 1-215.1 0 107.55 107.55 0 1 1 215.1 0z" fill="red"/><path d="M324.95 226.5a98.45 98.45 0 1 1-196.9 0 98.45 98.45 0 1 1 196.9 0z"/><path d="M149.07 74.54a170.55 170.55 0 0 1 50.75-16.49L226.5 226.5zm-74.53 74.53a170.55 170.55 0 0 1 31.36-43.17l120.6 120.6zM58.05 253.18a170.55 170.55 0 0 1 0-53.36L226.5 226.5zm47.85 93.92a170.55 170.55 0 0 1-31.36-43.17L226.5 226.5zm93.92 47.85a170.55 170.55 0 0 1-50.75-16.49L226.5 226.5zm104.11-16.49a170.55 170.55 0 0 1-50.75 16.49L226.5 226.5zm74.53-74.53a170.55 170.55 0 0 1-31.36 43.17L226.5 226.5zm16.49-104.11a170.55 170.55 0 0 1 0 53.36L226.5 226.5zM347.1 105.9a170.55 170.55 0 0 1 31.36 43.17L226.5 226.5zm-93.92-47.85a170.55 170.55 0 0 1 50.75 16.49L226.5 226.5z" fill="#00a000"/><g fill="#e7e4c7"><path d="M153.2 82.65a161.45 161.45 0 0 1 48.04-15.61L226.5 226.5zM82.65 153.2a161.45 161.45 0 0 1 29.69-40.86L226.5 226.5zm-15.61 98.56a161.45 161.45 0 0 1 0-50.52L226.5 226.5zm45.3 88.9a161.45 161.45 0 0 1-29.7-40.86l143.86-73.3z"/><path d="M201.24 385.96a161.45 161.45 0 0 1-48.04-15.6l73.3-143.86zm98.56-15.61a161.45 161.45 0 0 1-48.04 15.61L226.5 226.5zm70.55-70.55a161.45 161.45 0 0 1-29.69 40.86L226.5 226.5zm15.61-98.56a161.45 161.45 0 0 1 0 50.52L226.5 226.5zm-45.3-88.9a161.45 161.45 0 0 1 29.7 40.86L226.5 226.5zm-88.9-45.3a161.45 161.45 0 0 1 48.04 15.6L226.5 226.5z"/></g><path d="M177.67 130.67a107.55 107.55 0 0 1 32-10.4L226.5 226.5zm-47 47a107.55 107.55 0 0 1 19.78-27.22l76.05 76.05zm-10.4 65.65a107.55 107.55 0 0 1 0-33.64L226.5 226.5zm30.18 59.23a107.55 107.55 0 0 1-19.78-27.22l95.83-48.83zm59.23 30.18a107.55 107.55 0 0 1-32-10.4l48.82-95.83zm65.65-10.4a107.55 107.55 0 0 1-32 10.4L226.5 226.5zm47-47a107.55 107.55 0 0 1-19.78 27.22L226.5 226.5zm10.4-65.65a107.55 107.55 0 0 1 0 33.64L226.5 226.5zm-30.18-59.23a107.55 107.55 0 0 1 19.78 27.22L226.5 226.5zm-59.23-30.18a107.55 107.55 0 0 1 32 10.4L226.5 226.5z" fill="#00a000"/><g fill="#e7e4c7"><path d="M181.8 138.78a98.45 98.45 0 0 1 29.3-9.52l15.4 97.24zm-43.02 43.02a98.45 98.45 0 0 1 18.1-24.91l69.62 69.61zm-9.52 60.1a98.45 98.45 0 0 1 0-30.8l97.24 15.4z"/><path d="M156.89 296.11a98.45 98.45 0 0 1-18.11-24.91l87.72-44.7zm54.21 27.63a98.45 98.45 0 0 1-29.3-9.52l44.7-87.72z"/><path d="M271.2 314.22a98.45 98.45 0 0 1-29.3 9.52l-15.4-97.24zm43.02-43.02a98.45 98.45 0 0 1-18.1 24.91L226.5 226.5zm9.52-60.1a98.45 98.45 0 0 1 0 30.8l-97.24-15.4zm-27.63-54.21a98.45 98.45 0 0 1 18.11 24.91l-87.72 44.7zm-54.21-27.63a98.45 98.45 0 0 1 29.3 9.52l-44.7 87.72z"/></g><path d="M242.95 226.5a16.45 16.45 0 1 1-32.9 0 16.45 16.45 0 1 1 32.9 0z" fill="#00a000"/><path d="M233.4 226.5a6.9 6.9 0 1 1-13.8 0 6.9 6.9 0 1 1 13.8 0z" fill="red"/></g><g style="text-align:start;line-height:100%" font-size="28" font-weight="400" fill="#fff" font-family="Sans"><text x="-16.95" y="-187.82" xml:space="preserve" transform="translate(226.5 226.5)"><tspan x="-16.95" y="-187.82">20</tspan></text><text x="51.87" y="-180.37" xml:space="preserve" transform="translate(226.5 226.5)"><tspan x="51.87" y="-180.37">1</tspan></text><text x="100.02" y="-150.53" xml:space="preserve" transform="translate(226.5 226.5)"><tspan x="100.02" y="-150.53">18</tspan></text><text x="153.24" y="-103.74" xml:space="preserve" transform="translate(226.5 226.5)"><tspan x="153.24" y="-103.74">4</tspan></text><text x="173.92" y="-45.77" xml:space="preserve" transform="translate(226.5 226.5)"><tspan x="173.92" y="-45.77">13</tspan></text><text x="187.15" y="9.15" xml:space="preserve" transform="translate(226.5 226.5)"><tspan x="187.15" y="9.15">6</tspan></text><text x="171.55" y="67.47" xml:space="preserve" transform="translate(226.5 226.5)"><tspan x="171.55" y="67.47">10</tspan></text><text x="142.73" y="127.14" xml:space="preserve" transform="translate(226.5 226.5)"><tspan x="142.73" y="127.14">15</tspan></text><text x="106.12" y="169.86" xml:space="preserve" transform="translate(226.5 226.5)"><tspan x="106.12" y="169.86">2</tspan></text><text x="42.72" y="196.64" xml:space="preserve" transform="translate(226.5 226.5)"><tspan x="42.72" y="196.64">17</tspan></text><text x="-6.1" y="208.17" xml:space="preserve" transform="translate(226.5 226.5)"><tspan x="-6.1" y="208.17">3</tspan></text><text x="-74.25" y="199.01" xml:space="preserve" transform="translate(226.5 226.5)"><tspan x="-74.25" y="199.01">19</tspan></text><text x="-123.75" y="173.25" xml:space="preserve" transform="translate(226.5 226.5)"><tspan x="-123.75" y="173.25">7</tspan></text><text x="-174.94" y="127.14" xml:space="preserve" transform="translate(226.5 226.5)"><tspan x="-174.94" y="127.14">16</tspan></text><text x="-193.59" y="72.89" xml:space="preserve" transform="translate(226.5 226.5)"><tspan x="-193.59" y="72.89">8</tspan></text><text x="-214.61" y="8.81" xml:space="preserve" transform="translate(226.5 226.5)"><tspan x="-214.61" y="8.81">11</tspan></text><text x="-208.51" y="-48.82" xml:space="preserve" transform="translate(226.5 226.5)"><tspan x="-208.51" y="-48.82">14</tspan></text><text x="-165.11" y="-109.51" xml:space="preserve" transform="translate(226.5 226.5)"><tspan x="-165.11" y="-109.51">9</tspan></text><text x="-134.26" y="-152.23" xml:space="preserve" transform="translate(226.5 226.5)"><tspan x="-134.26" y="-152.23">12</tspan></text><text x="-67.47" y="-178.67" xml:space="preserve" transform="translate(226.5 226.5)"><tspan x="-67.47" y="-178.67">5</tspan></text></g></svg>